# xmcd
#
# Track frame offsets:
#	150
#	21995
#	49197
#	73282
#	89157
#	108019
#	132679
#	156822
#	173266
#	196764
#	218373
#	246091
#	270337
#
# Disc length: 3875 seconds
#
# Revision: 0
# Processed by: cddbd v1.5.2PL0 Copyright (c) Steve Scherf et al.
# Submitted via: EZCDAudioConverter 1.3.3.1
#
DISCID=af0f210d
DTITLE=The Walkabouts
DYEAR=1900
DGENRE=
TTITLE0=Satisfied Mind
TTITLE1=Loom Of The Land
TTITLE2=The River People
TTITLE3=Buffalo Ballet
TTITLE4=Will You Miss Me When I'm Gone
TTITLE5=The Light Will Stay On
TTITLE6=Christmas Valley
TTITLE7=The Train Leaves At Eight
TTITLE8=Man From Reno
TTITLE9=That Black Guitar
TTITLE10=Disamistade
TTITLE11=Lazarus Heart
TTITLE12=Radiant
EXTD=
EXTT0=
EXTT1=
EXTT2=
EXTT3=
EXTT4=
EXTT5=
EXTT6=
EXTT7=
EXTT8=
EXTT9=
EXTT10=
EXTT11=
EXTT12=
PLAYORDER=
